<?xml version="1.0" encoding="UTF-8"?>
<svg width="88px" height="58px" viewBox="0 0 88 58" version="1.1" xmlns="http://www.w3.org/2000/svg" xmlns:xlink="http://www.w3.org/1999/xlink">
    <!-- Generator: Sketch 43.2 (39069) - http://www.bohemiancoding.com/sketch -->
    <title>Grow</title>
    <desc>Created with Sketch.</desc>
    <defs></defs>
    <g id="Welcome" stroke="none" stroke-width="1" fill="none" fill-rule="evenodd">
        <g id="Mobile-Portrait" transform="translate(-44.000000, -119.000000)">
            <g id="Grow" transform="translate(44.000000, 119.000000)">
                <rect id="Screen" fill="#FFFFFF" opacity="0.16" x="0" y="0" width="88" height="58" rx="2"></rect>
                <g id="Grid" opacity="0.461050725" transform="translate(6.000000, 12.000000)" stroke="#FFFFFF" stroke-linecap="square">
                    <path d="M1.5,1.5 L73.6734023,1.5" id="Line" opacity="0.4"></path>
                    <path d="M73.5,2.5 L73.5,28.5" id="Line" opacity="0.4"></path>
                    <path d="M72.5,25.5 L2.43574378,25.5" id="Line" opacity="0.4"></path>
                    <path d="M1.5,28.5 L1.5,2.48077634" id="Line" opacity="0.4"></path>
                    <path d="M2.5,9.5 L72.5,9.5" id="Line" opacity="0.4"></path>
                    <path d="M2.5,17.5 L72.5,17.5" id="Line" opacity="0.4"></path>
                    <path d="M9.5,2.5 L9.5,8.5" id="Line" opacity="0.4"></path>
                    <path d="M17.5,2.5 L17.5,8.5" id="Line" opacity="0.4"></path>
                    <path d="M25.5,2.5 L25.5,8.5" id="Line" opacity="0.4"></path>
                    <path d="M33.5,2.5 L33.5,8.5" id="Line" opacity="0.4"></path>
                    <path d="M41.5,2.5 L41.5,8.5" id="Line" opacity="0.4"></path>
                    <path d="M49.5,2.5 L49.5,8.5" id="Line" opacity="0.4"></path>
                    <path d="M57.5,2.5 L57.5,8.5" id="Line" opacity="0.4"></path>
                    <path d="M65.5,2.5 L65.5,8.5" id="Line" opacity="0.4"></path>
                    <path d="M9.5,10.5 L9.5,16.5" id="Line" opacity="0.4"></path>
                    <path d="M17.5,10.5 L17.5,16.5" id="Line" opacity="0.4"></path>
                    <path d="M25.5,10.5 L25.5,16.5" id="Line" opacity="0.4"></path>
                    <path d="M33.5,10.5 L33.5,16.5" id="Line" opacity="0.4"></path>
                    <path d="M41.5,10.5 L41.5,16.5" id="Line" opacity="0.4"></path>
                    <path d="M49.5,10.5 L49.5,16.5" id="Line" opacity="0.4"></path>
                    <path d="M57.5,10.5 L57.5,16.5" id="Line" opacity="0.4"></path>
                    <path d="M65.5,10.5 L65.5,16.5" id="Line" opacity="0.4"></path>
                    <path d="M9.5,18.5 L9.5,24.5" id="Line" opacity="0.4"></path>
                    <path d="M17.5,18.5 L17.5,24.5" id="Line" opacity="0.4"></path>
                    <path d="M25.5,18.5 L25.5,24.5" id="Line" opacity="0.4"></path>
                    <path d="M33.5,18.5 L33.5,24.5" id="Line" opacity="0.4"></path>
                    <path d="M41.5,18.5 L41.5,24.5" id="Line" opacity="0.4"></path>
                    <path d="M49.5,18.5 L49.5,24.5" id="Line" opacity="0.4"></path>
                    <path d="M57.5,18.5 L57.5,24.5" id="Line" opacity="0.4"></path>
                    <path d="M65.5,18.5 L65.5,24.5" id="Line" opacity="0.4"></path>
                    <path d="M9.5,26.5 L9.5,28.5" id="Line" opacity="0.4"></path>
                    <path d="M17.5,26.5 L17.5,28.5" id="Line" opacity="0.4"></path>
                    <path d="M25.5,26.5 L25.5,28.5" id="Line" opacity="0.4"></path>
                    <path d="M33.5,26.5 L33.5,28.5" id="Line" opacity="0.4"></path>
                    <path d="M41.5,26.5 L41.5,28.5" id="Line" opacity="0.4"></path>
                    <path d="M49.5,26.5 L49.5,28.5" id="Line" opacity="0.4"></path>
                    <path d="M57.5,26.5 L57.5,28.5" id="Line" opacity="0.4"></path>
                    <path d="M65.5,26.5 L65.5,28.5" id="Line" opacity="0.4"></path>
                </g>
                <path d="M7.98925943,28.0107406 L19.632746,16.367254" id="Line" stroke="#71AAE8" stroke-linecap="square"></path>
                <path d="M19.5,16.5 L40.0548048,37.0548048" id="Line" stroke="#71AAE8" stroke-linecap="square"></path>
                <path d="M40.5,36.5 L48.5622577,28.4377423" id="Line" stroke="#71AAE8" stroke-linecap="square"></path>
                <path d="M48.5,28.5 L56.5,36.5" id="Line" stroke="#71AAE8" stroke-linecap="square"></path>
                <path d="M56.5,36.5 L74.5,18.5" id="Line" stroke="#71AAE8" stroke-linecap="square"></path>
                <polygon id="Triangle" stroke="#71AAE8" fill="#71AAE8" transform="translate(76.000000, 17.000000) rotate(45.000000) translate(-76.000000, -17.000000) " points="76 15 78 19 74 19"></polygon>
            </g>
        </g>
    </g>
</svg>