<?xml version="1.0" encoding="UTF-8"?>
<svg width="88px" height="58px" viewBox="0 0 88 58" version="1.1" xmlns="http://www.w3.org/2000/svg" xmlns:xlink="http://www.w3.org/1999/xlink">
    <!-- Generator: Sketch 43.2 (39069) - http://www.bohemiancoding.com/sketch -->
    <title>Health</title>
    <desc>Created with Sketch.</desc>
    <defs></defs>
    <g id="Welcome" stroke="none" stroke-width="1" fill="none" fill-rule="evenodd">
        <g id="Mobile-Portrait" transform="translate(-44.000000, -192.000000)">
            <g id="Health" transform="translate(44.000000, 192.000000)">
                <rect id="Screen" fill="#FFFFFF" opacity="0.16" x="0" y="0" width="88" height="58" rx="2"></rect>
                <g id="EKG" transform="translate(0.000000, 18.000000)" stroke="#71AAE8" stroke-linecap="square">
                    <path d="M0.5,11.5 L7.5,11.5" id="Line"></path>
                    <path d="M7.5,11.5 L9.5,15.5" id="Line"></path>
                    <path d="M9.5,15.5 L11.5,9.5" id="Line"></path>
                    <path d="M11.5,9.5 L12.5,11.5" id="Line"></path>
                    <path d="M35.5,11.5 L43.5,11.5" id="Line"></path>
                    <path d="M43.5,11.5 L45.5,15.5" id="Line"></path>
                    <path d="M45.5,15.5 L47.5,9.5" id="Line"></path>
                    <path d="M47.5,9.5 L48.5,11.5" id="Line"></path>
                    <path d="M13.5,11.5 L15.5,6.5" id="Line"></path>
                    <path d="M15.5,6.5 L18.5,14.5" id="Line"></path>
                    <path d="M18.5,14.5 L19.5,12.5" id="Line"></path>
                    <path d="M19.5,12.5 L21.5,16.5" id="Line"></path>
                    <path d="M21.5,16.5 L26.5,0.5" id="Line"></path>
                    <path d="M26.5,0.5 L32.5,21.5" id="Line"></path>
                    <path d="M32.5,21.5 L35.5,11.5" id="Line"></path>
                    <path d="M71.5,11.5 L79.5,11.5" id="Line"></path>
                    <path d="M79.5,11.5 L81.5,15.5" id="Line"></path>
                    <path d="M81.5,15.5 L83.5,9.5" id="Line"></path>
                    <path d="M83.5,9.5 L84.5,11.5" id="Line"></path>
                    <path d="M49.5,11.5 L51.5,6.5" id="Line"></path>
                    <path d="M51.5,6.5 L54.5,14.5" id="Line"></path>
                    <path d="M54.5,14.5 L55.5,12.5" id="Line"></path>
                    <path d="M55.5,12.5 L57.5,16.5" id="Line"></path>
                    <path d="M57.5,16.5 L62.5,0.5" id="Line"></path>
                    <path d="M62.5,0.5 L68.5,21.5" id="Line"></path>
                    <path d="M68.5,21.5 L71.5,11.5" id="Line"></path>
                    <path d="M85.5,11.5 L87.5,6.5" id="Line"></path>
                </g>
            </g>
        </g>
    </g>
</svg>