<?xml version="1.0" encoding="UTF-8"?>
<svg width="88px" height="58px" viewBox="0 0 88 58" version="1.1" xmlns="http://www.w3.org/2000/svg" xmlns:xlink="http://www.w3.org/1999/xlink">
    <!-- Generator: Sketch 43.2 (39069) - http://www.bohemiancoding.com/sketch -->
    <title>Health</title>
    <desc>Created with Sketch.</desc>
    <defs></defs>
    <g id="Welcome" stroke="none" stroke-width="1" fill="none" fill-rule="evenodd">
        <g id="Mobile-Portrait" transform="translate(-44.000000, -192.000000)" fill="#FFFFFF">
            <g id="Health" transform="translate(44.000000, 192.000000)">
                <rect id="Screen" opacity="0.16" x="0" y="0" width="88" height="58" rx="2"></rect>
                <path d="M63.8270168,14.9430798 C63.5984987,14.3851977 63.1941212,13.9679039 62.7052913,13.7075921 C62.712743,13.6946759 62.7167172,13.6817596 62.717214,13.6688434 C62.7211882,13.557565 62.6759814,13.3971056 62.3416496,12.9922313 C62.3197913,12.9654053 62.2964428,12.9380825 62.2716038,12.9092693 C62.1513835,12.7696746 62.0346406,12.7080741 61.9263429,12.6951579 C61.5969789,12.627596 61.2482405,12.8958563 61.1394461,13.4780805 C61.0231999,13.7741604 60.9601091,14.1288601 61.1921046,14.297268 C61.5617076,14.5695025 62.1036928,14.5088955 62.1036928,14.5088955 C62.1036928,14.5088955 62.1046863,14.5049213 62.107667,14.4984632 C62.1379705,14.5242956 62.1707578,14.5471474 62.2080162,14.5655282 C62.5100574,14.7195295 62.7654015,14.9743768 62.9049962,15.3221216 C63.0406167,15.6475114 63.0783718,16.060831 62.9775258,16.5481705 C62.748511,17.6475409 61.1439171,18.8214281 59.0857645,19.8934757 C55.8810476,21.562154 51.6534641,22.9183588 49.5933245,23.4772344 C49.585376,23.473757 49.5779243,23.4702795 49.5699759,23.4672989 C49.5625242,23.4638214 49.5560661,23.460344 49.5481176,23.4573633 C49.5481176,23.4573633 49.5481176,23.4573633 49.5471241,23.4573633 L49.5481176,23.4573633 C49.4209424,23.4081823 49.2798573,23.3957628 49.1427465,23.4270598 C49.1392691,23.4275566 49.1352949,23.4290469 49.1323142,23.4300405 C49.1144302,23.4340147 49.0955526,23.4389825 49.0776686,23.4454406 C49.0553135,23.4523955 49.0334553,23.4608408 49.0120938,23.4702795 C49.0056357,23.473757 47.2008401,24.2750604 45.1392101,24.2750604 C44.8634981,24.2750604 44.615109,24.2556861 44.3930491,24.2189245 C43.6662624,24.1006912 43.1451419,23.8105727 42.808823,23.417621 C42.4879042,23.0405663 42.3329094,22.5601817 42.3329094,22.0504871 C42.3329094,21.9059246 42.3408578,21.7653364 42.3632129,21.631703 C42.4849235,20.8865355 42.905198,20.1105678 43.4571187,19.4001748 C44.1391953,18.5238579 45.0209768,17.7622967 45.8128415,17.2729701 C45.9991333,17.158711 46.1133924,16.9704321 46.1417087,16.7687401 C46.1749929,16.7448947 46.2097674,16.7190622 46.2475225,16.692733 C47.4651262,15.8114483 50.6256298,13.6176752 53.677339,11.9653905 C55.1776095,11.1546483 56.6445959,10.4815137 57.8159991,10.1720208 C58.8160139,9.90723798 59.5537297,9.90276697 59.8036092,10.3225447 C59.8344094,10.3727193 59.8592483,10.4253778 59.8791195,10.4894622 C60.0112625,10.9142076 60.090747,11.3911148 60.1309861,11.6683171 C60.0852825,11.8203313 59.9953656,12.2023538 60.1280054,12.5381759 C60.2303417,12.8059394 60.5934867,12.8317719 60.9099345,12.7915329 C61.5145137,12.8332623 61.865736,12.5471179 61.8637488,12.1998699 C61.8692134,12.0985271 61.8354325,11.9802939 61.740051,11.8421895 C61.6128758,11.6568912 61.5100427,11.5262385 61.4241,11.4343345 C61.2815247,11.2773526 61.1926013,11.2346296 61.1175878,11.2172424 C61.1016909,11.2142617 61.0848005,11.2162488 61.0674132,11.2222102 C61.0157483,10.9196722 60.9372573,10.5411271 60.8274693,10.1928855 C60.7862367,10.0518005 60.7271201,9.925122 60.6580679,9.80837909 C60.1280054,8.93007503 59.001809,8.82922903 57.5656229,9.21075478 C56.3018188,9.54061558 54.7652835,10.2460408 53.2058964,11.0895704 C50.0086311,12.8178621 46.6836939,15.1452685 45.5391166,15.9773722 C45.3826315,15.9565075 45.2181978,15.986811 45.0746289,16.0747408 C44.1610536,16.6405713 43.1446451,17.5203657 42.351787,18.5372709 C41.663749,19.4185556 41.1401446,20.4106219 40.9781949,21.4066624 C40.9429237,21.6307094 40.9235493,21.8453177 40.9235493,22.0509839 C40.9235493,22.2352887 40.9369623,22.4181031 40.9637883,22.5989304 C39.5380346,23.0072822 36.1808067,23.9968646 33.2165305,25.0858026 C31.8543644,25.5840713 30.4017846,26.3848779 29.0341539,27.4062541 C27.0579697,28.876718 25.2496967,30.8096824 24.1433714,32.9522873 C23.0052522,35.1634475 22.5949133,37.5936871 23.4766949,39.9841843 C23.7479358,40.7253776 24.1433714,41.4601127 24.6788984,42.180938 C25.9228313,43.8511067 28.462362,45.3101446 31.2512755,45.8903817 C32.6159255,46.1755325 34.040189,46.2540234 35.4098068,46.0538218 C36.8087345,45.8486523 38.1470553,45.3553515 39.3060391,44.4894669 C40.8833103,43.3160765 42.1098559,41.4824677 42.6707186,38.7939035 C44.5430761,29.8240742 47.189911,29.7788674 48.6102002,29.7883062 C49.0175584,30.7371527 49.9634243,31.4048228 51.0578269,31.4048228 C52.5263036,31.4048228 53.7215523,30.2110645 53.7215523,28.7440781 C53.7215523,27.3620409 52.6624209,26.2229282 51.313171,26.0932691 C51.2008991,26.0788625 51.0876336,26.0699205 50.9713875,26.0699205 C49.6340603,26.0699205 48.532206,27.0843418 48.3975791,28.3849074 C46.5356539,28.390372 43.3205047,28.8036915 41.2971266,38.5042817 C40.8147548,40.8237397 39.7839398,42.3836236 38.4709548,43.3602897 C37.5126694,44.0756505 36.3869697,44.4879765 35.2091083,44.6628425 C34.001937,44.8372117 32.7440943,44.7666692 31.5384134,44.5172864 C29.0748897,44.000637 26.8577681,42.7532266 25.8075787,41.3438666 C25.3555104,40.7382938 25.0221722,40.1212951 24.7941509,39.500819 C24.0683578,37.5181768 24.4225608,35.4724436 25.3907817,33.5936281 C26.3972546,31.6492377 28.0510296,29.8841844 29.8692382,28.5284764 C31.1275777,27.5955267 32.4564597,26.8602948 33.6984055,26.4047491 C35.4301747,25.7693696 37.2861385,25.1702549 38.8057833,24.7027865 C39.9304894,24.3575256 40.8708908,24.0838008 41.4436762,23.9203607 C41.5321027,24.0619425 41.6314584,24.1990533 41.7437303,24.3287125 C42.2837283,24.9616081 43.089006,25.4295732 44.1660214,25.604936 C44.4750175,25.6561041 44.8023944,25.6814398 45.1387133,25.6814398 C47.4949329,25.6814398 49.5729565,24.7604128 49.5789179,24.7569354 C49.7378869,24.6863929 49.8581073,24.5636886 49.928153,24.4176358 C52.0623127,23.8324309 56.3152318,22.460826 59.5467748,20.7762507 C61.8399035,19.5805053 63.6526476,18.1974745 63.9512113,16.7498625 C64.0967674,16.0528825 64.0321862,15.4448259 63.8270168,14.9430798 Z" id="Shape" fill-rule="nonzero" opacity="0.397871377"></path>
            </g>
        </g>
    </g>
</svg>