<?xml version="1.0" encoding="UTF-8"?>
<svg width="88px" height="58px" viewBox="0 0 88 58" version="1.1" xmlns="http://www.w3.org/2000/svg" xmlns:xlink="http://www.w3.org/1999/xlink">
    <!-- Generator: Sketch 43.2 (39069) - http://www.bohemiancoding.com/sketch -->
    <title>Graphic 1</title>
    <desc>Created with Sketch.</desc>
    <defs>
        <rect id="path-1" x="0" y="0" width="3" height="9"></rect>
        <rect id="path-2" x="4" y="4" width="3" height="5"></rect>
        <rect id="path-3" x="8" y="2" width="3" height="7"></rect>
        <rect id="path-4" x="12" y="4" width="3" height="5"></rect>
        <rect id="path-5" x="16" y="1" width="3" height="8"></rect>
        <rect id="path-6" x="20" y="3" width="3" height="6"></rect>
        <rect id="path-7" x="24" y="2" width="3" height="7"></rect>
        <rect id="path-8" x="28" y="4" width="3" height="5"></rect>
        <rect id="path-9" x="32" y="0" width="3" height="9"></rect>
        <rect id="path-10" x="36" y="3" width="3" height="6"></rect>
        <rect id="path-11" x="40" y="1" width="3" height="8"></rect>
        <rect id="path-12" x="44" y="5" width="3" height="4"></rect>
        <rect id="path-13" x="48" y="0" width="3" height="9"></rect>
        <rect id="path-14" x="52" y="1" width="3" height="8"></rect>
        <rect id="path-15" x="56" y="2" width="3" height="7"></rect>
        <rect id="path-16" x="60" y="4" width="3" height="5"></rect>
        <rect id="path-17" x="64" y="0" width="3" height="9"></rect>
        <rect id="path-18" x="68" y="4" width="3" height="5"></rect>
    </defs>
    <g id="Welcome" stroke="none" stroke-width="1" fill="none" fill-rule="evenodd">
        <g id="Mobile-Portrait" transform="translate(-44.000000, -49.000000)">
            <g id="Graphic-1" transform="translate(44.000000, 49.000000)">
                <rect id="Screen" fill="#D8D8D8" x="0" y="0" width="88" height="58" rx="2"></rect>
                <g id="Grid" opacity="0.461050725" transform="translate(7.000000, 12.000000)" stroke="#979797" stroke-linecap="square">
                    <path d="M0.5,1.5 L72.5,1.5" id="Line" opacity="0.404495018"></path>
                    <path d="M0.5,9.5 L72.5,9.5" id="Line" opacity="0.404495018"></path>
                    <path d="M0.5,17.5 L72.5,17.5" id="Line" opacity="0.404495018"></path>
                    <path d="M0.5,25.5 L72.5,25.5" id="Line" opacity="0.404495018"></path>
                    <path d="M8.5,1.5 L8.5,28.5" id="Line" opacity="0.404495018"></path>
                    <path d="M16.5,1.5 L16.5,28.5" id="Line" opacity="0.404495018"></path>
                    <path d="M24.5,1.5 L24.5,28.5" id="Line" opacity="0.404495018"></path>
                    <path d="M32.5,1.5 L32.5,28.5" id="Line" opacity="0.404495018"></path>
                    <path d="M40.5,1.5 L40.5,28.5" id="Line" opacity="0.404495018"></path>
                    <path d="M48.5,1.5 L48.5,28.5" id="Line" opacity="0.404495018"></path>
                    <path d="M56.5,1.5 L56.5,28.5" id="Line" opacity="0.404495018"></path>
                    <path d="M64.5,1.5 L64.5,28.5" id="Line" opacity="0.404495018"></path>
                    <path d="M72.5,1.5 L72.5,28.5" id="Line" opacity="0.404495018"></path>
                    <path d="M0.5,1.5 L0.5,28.5" id="Line" opacity="0.404495018"></path>
                </g>
                <path d="M7.76464844,17.5551758 C13.7719727,18.4711914 29.3540039,31.8110352 29.3540039,31.8110352 C29.3540039,31.8110352 39.3447266,26.668457 43.4477539,28.7041016 C47.5507812,30.7397461 53.7226562,30.8256836 53.7226562,30.8256836 L60.1635742,27.7988281 L69.1987305,25.4760742 L75.1850586,26.9980469 L78.9960938,23.6376953" id="Price" stroke="#979797" opacity="0.479959239"></path>
                <g id="Volume" opacity="0.446897645" transform="translate(8.000000, 44.000000)">
                    <g id="Rectangle-3">
                        <use fill="#8E8E93" fill-rule="evenodd" xlink:href="#path-1"></use>
                        <rect stroke="#979797" stroke-width="1" x="0.5" y="0.5" width="2" height="8"></rect>
                    </g>
                    <g id="Rectangle-3" opacity="0.584012681">
                        <use fill="#8E8E93" fill-rule="evenodd" xlink:href="#path-2"></use>
                        <rect stroke="#979797" stroke-width="1" x="4.5" y="4.5" width="2" height="4"></rect>
                    </g>
                    <g id="Rectangle-3" opacity="0.584012681">
                        <use fill="#8E8E93" fill-rule="evenodd" xlink:href="#path-3"></use>
                        <rect stroke="#979797" stroke-width="1" x="8.5" y="2.5" width="2" height="6"></rect>
                    </g>
                    <g id="Rectangle-3">
                        <use fill="#8E8E93" fill-rule="evenodd" xlink:href="#path-4"></use>
                        <rect stroke="#979797" stroke-width="1" x="12.5" y="4.5" width="2" height="4"></rect>
                    </g>
                    <g id="Rectangle-3">
                        <use fill="#8E8E93" fill-rule="evenodd" xlink:href="#path-5"></use>
                        <rect stroke="#979797" stroke-width="1" x="16.5" y="1.5" width="2" height="7"></rect>
                    </g>
                    <g id="Rectangle-3">
                        <use fill="#8E8E93" fill-rule="evenodd" xlink:href="#path-6"></use>
                        <rect stroke="#979797" stroke-width="1" x="20.5" y="3.5" width="2" height="5"></rect>
                    </g>
                    <g id="Rectangle-3" opacity="0.621716486">
                        <use fill="#8E8E93" fill-rule="evenodd" xlink:href="#path-7"></use>
                        <rect stroke="#979797" stroke-width="1" x="24.5" y="2.5" width="2" height="6"></rect>
                    </g>
                    <g id="Rectangle-3">
                        <use fill="#8E8E93" fill-rule="evenodd" xlink:href="#path-8"></use>
                        <rect stroke="#979797" stroke-width="1" x="28.5" y="4.5" width="2" height="4"></rect>
                    </g>
                    <g id="Rectangle-3">
                        <use fill="#8E8E93" fill-rule="evenodd" xlink:href="#path-9"></use>
                        <rect stroke="#979797" stroke-width="1" x="32.5" y="0.5" width="2" height="8"></rect>
                    </g>
                    <g id="Rectangle-3" opacity="0.515511775">
                        <use fill="#8E8E93" fill-rule="evenodd" xlink:href="#path-10"></use>
                        <rect stroke="#979797" stroke-width="1" x="36.5" y="3.5" width="2" height="5"></rect>
                    </g>
                    <g id="Rectangle-3" opacity="0.787647192">
                        <use fill="#8E8E93" fill-rule="evenodd" xlink:href="#path-11"></use>
                        <rect stroke="#979797" stroke-width="1" x="40.5" y="1.5" width="2" height="7"></rect>
                    </g>
                    <g id="Rectangle-3">
                        <use fill="#8E8E93" fill-rule="evenodd" xlink:href="#path-12"></use>
                        <rect stroke="#979797" stroke-width="1" x="44.5" y="5.5" width="2" height="3"></rect>
                    </g>
                    <g id="Rectangle-3" opacity="0.537873641">
                        <use fill="#8E8E93" fill-rule="evenodd" xlink:href="#path-13"></use>
                        <rect stroke="#979797" stroke-width="1" x="48.5" y="0.5" width="2" height="8"></rect>
                    </g>
                    <g id="Rectangle-3">
                        <use fill="#8E8E93" fill-rule="evenodd" xlink:href="#path-14"></use>
                        <rect stroke="#979797" stroke-width="1" x="52.5" y="1.5" width="2" height="7"></rect>
                    </g>
                    <g id="Rectangle-3">
                        <use fill="#8E8E93" fill-rule="evenodd" xlink:href="#path-15"></use>
                        <rect stroke="#979797" stroke-width="1" x="56.5" y="2.5" width="2" height="6"></rect>
                    </g>
                    <g id="Rectangle-3" opacity="0.78272192">
                        <use fill="#8E8E93" fill-rule="evenodd" xlink:href="#path-16"></use>
                        <rect stroke="#979797" stroke-width="1" x="60.5" y="4.5" width="2" height="4"></rect>
                    </g>
                    <g id="Rectangle-3" opacity="0.741055254">
                        <use fill="#8E8E93" fill-rule="evenodd" xlink:href="#path-17"></use>
                        <rect stroke="#979797" stroke-width="1" x="64.5" y="0.5" width="2" height="8"></rect>
                    </g>
                    <g id="Rectangle-3">
                        <use fill="#8E8E93" fill-rule="evenodd" xlink:href="#path-18"></use>
                        <rect stroke="#979797" stroke-width="1" x="68.5" y="4.5" width="2" height="4"></rect>
                    </g>
                </g>
                <g id="Ticker-/-Symbol" transform="translate(8.000000, 4.000000)">
                    <rect id="Rectangle-4" fill="#BFBFBF" x="0" y="0" width="4" height="6"></rect>
                    <rect id="Rectangle-4" fill="#BFBFBF" x="5" y="0" width="4" height="6"></rect>
                    <rect id="Rectangle-4" fill="#BFBFBF" x="10" y="0" width="4" height="6"></rect>
                    <rect id="Rectangle-4" fill="#BFBFBF" x="19" y="0" width="4" height="6"></rect>
                    <rect id="Rectangle-4" fill="#BFBFBF" x="24" y="0" width="4" height="6"></rect>
                    <rect id="Rectangle-4" fill="#BFBFBF" x="29" y="0" width="4" height="6"></rect>
                    <path d="M15.5,5.5 L17.5,0.5" id="Line" stroke="#979797" opacity="0.496999547" stroke-linecap="square"></path>
                </g>
                <g id="Plus-/-Minus" transform="translate(66.000000, 5.000000)" stroke="#979797" stroke-linecap="square">
                    <path d="M10.5,0.5 L10.5,4.5" id="Line" opacity="0.504472373"></path>
                    <path d="M0.5,2.5 L3.5,2.5" id="Line" opacity="0.512171649"></path>
                    <path d="M8.5,2.5 L12.5,2.5" id="Line" opacity="0.49365942"></path>
                </g>
            </g>
        </g>
    </g>
</svg>