<?xml version="1.0" encoding="UTF-8"?>
<svg width="88px" height="58px" viewBox="0 0 88 58" version="1.1" xmlns="http://www.w3.org/2000/svg" xmlns:xlink="http://www.w3.org/1999/xlink">
    <!-- Generator: Sketch 43.2 (39069) - http://www.bohemiancoding.com/sketch -->
    <title>screen</title>
    <desc>Created with Sketch.</desc>
    <defs></defs>
    <g id="Page-1" stroke="none" stroke-width="1" fill="none" fill-rule="evenodd">
        <g id="screen">
            <rect id="Screen" fill="#FFFFFF" fill-rule="nonzero" opacity="0.158967391" x="0" y="0" width="88" height="58" rx="2"></rect>
            <g id="Grid" opacity="0.461050725" stroke-linecap="square" transform="translate(7.000000, 13.000000)" stroke="#FFFFFF">
                <path d="M0.5,0.5 L72.5,0.5" id="Line" opacity="0.404495018"></path>
                <path d="M0.5,8.5 L72.5,8.5" id="Line" opacity="0.404495018"></path>
                <path d="M0.5,16.5 L72.5,16.5" id="Line" opacity="0.404495018"></path>
                <path d="M0.5,24.5 L72.5,24.5" id="Line" opacity="0.404495018"></path>
                <path d="M8.5,0.5 L8.5,27.5" id="Line" opacity="0.404495018"></path>
                <path d="M16.5,0.5 L16.5,27.5" id="Line" opacity="0.404495018"></path>
                <path d="M24.5,0.5 L24.5,27.5" id="Line" opacity="0.404495018"></path>
                <path d="M32.5,0.5 L32.5,27.5" id="Line" opacity="0.404495018"></path>
                <path d="M40.5,0.5 L40.5,27.5" id="Line" opacity="0.404495018"></path>
                <path d="M48.5,0.5 L48.5,27.5" id="Line" opacity="0.404495018"></path>
                <path d="M56.5,0.5 L56.5,27.5" id="Line" opacity="0.404495018"></path>
                <path d="M64.5,0.5 L64.5,27.5" id="Line" opacity="0.404495018"></path>
                <path d="M72.5,0.5 L72.5,27.5" id="Line" opacity="0.404495018"></path>
                <path d="M0.5,0.5 L0.5,27.5" id="Line" opacity="0.404495018"></path>
            </g>
            <path d="M7.76464844,17.5551758 C13.7719727,18.4711914 29.3540039,31.8110352 29.3540039,31.8110352 C29.3540039,31.8110352 39.3447266,26.668457 43.4477539,28.7041016 C47.5507812,30.7397461 53.7226562,30.8256836 53.7226562,30.8256836 L60.1635742,27.7988281 L69.1987305,25.4760742 L75.1850586,26.9980469 L78.9960938,23.6376953" id="Price" stroke="#FFFFFF" opacity="0.479959239"></path>
            <g id="Volume" opacity="0.446897645" transform="translate(8.000000, 44.000000)">
                <g id="Rectangle-3">
                    <g id="path-1-link" fill="#FFFFFF">
                        <rect id="path-1" x="0" y="0" width="3" height="9"></rect>
                    </g>
                    <rect id="Rectangle-path" stroke="#FFFFFF" x="0.5" y="0.5" width="2" height="8"></rect>
                </g>
                <g id="Rectangle-3" opacity="0.584012681" transform="translate(4.000000, 4.000000)">
                    <g id="path-2-link" fill="#FFFFFF">
                        <rect id="path-2" x="0" y="0" width="3" height="5"></rect>
                    </g>
                    <rect id="Rectangle-path" stroke="#FFFFFF" x="0.5" y="0.5" width="2" height="4"></rect>
                </g>
                <g id="Rectangle-3" opacity="0.584012681" transform="translate(8.000000, 2.000000)">
                    <g id="path-3-link" fill="#FFFFFF">
                        <rect id="path-3" x="0" y="0" width="3" height="7"></rect>
                    </g>
                    <rect id="Rectangle-path" stroke="#FFFFFF" x="0.5" y="0.5" width="2" height="6"></rect>
                </g>
                <g id="Rectangle-3" transform="translate(12.000000, 4.000000)">
                    <g id="path-4-link" fill="#FFFFFF">
                        <rect id="path-4" x="0" y="0" width="3" height="5"></rect>
                    </g>
                    <rect id="Rectangle-path" stroke="#FFFFFF" x="0.5" y="0.5" width="2" height="4"></rect>
                </g>
                <g id="Rectangle-3" transform="translate(16.000000, 1.000000)">
                    <g id="path-5-link" fill="#FFFFFF">
                        <rect id="path-5" x="0" y="0" width="3" height="8"></rect>
                    </g>
                    <rect id="Rectangle-path" stroke="#FFFFFF" x="0.5" y="0.5" width="2" height="7"></rect>
                </g>
                <g id="Rectangle-3" transform="translate(20.000000, 3.000000)">
                    <g id="path-6-link" fill="#FFFFFF">
                        <rect id="path-6" x="0" y="0" width="3" height="6"></rect>
                    </g>
                    <rect id="Rectangle-path" stroke="#FFFFFF" x="0.5" y="0.5" width="2" height="5"></rect>
                </g>
                <g id="Rectangle-3" opacity="0.621716486" transform="translate(24.000000, 2.000000)">
                    <g id="path-7-link" fill="#FFFFFF">
                        <rect id="path-7" x="0" y="0" width="3" height="7"></rect>
                    </g>
                    <rect id="Rectangle-path" stroke="#FFFFFF" x="0.5" y="0.5" width="2" height="6"></rect>
                </g>
                <g id="Rectangle-3" transform="translate(28.000000, 4.000000)">
                    <g id="path-8-link" fill="#FFFFFF">
                        <rect id="path-8" x="0" y="0" width="3" height="5"></rect>
                    </g>
                    <rect id="Rectangle-path" stroke="#FFFFFF" x="0.5" y="0.5" width="2" height="4"></rect>
                </g>
                <g id="Rectangle-3" transform="translate(32.000000, 0.000000)">
                    <g id="path-9-link" fill="#FFFFFF">
                        <rect id="path-9" x="0" y="0" width="3" height="9"></rect>
                    </g>
                    <rect id="Rectangle-path" stroke="#FFFFFF" x="0.5" y="0.5" width="2" height="8"></rect>
                </g>
                <g id="Rectangle-3" opacity="0.515511775" transform="translate(36.000000, 3.000000)">
                    <g id="path-10-link" fill="#FFFFFF">
                        <rect id="path-10" x="0" y="0" width="3" height="6"></rect>
                    </g>
                    <rect id="Rectangle-path" stroke="#FFFFFF" x="0.5" y="0.5" width="2" height="5"></rect>
                </g>
                <g id="Rectangle-3" opacity="0.787647192" transform="translate(40.000000, 1.000000)">
                    <g id="path-11-link" fill="#FFFFFF">
                        <rect id="path-11" x="0" y="0" width="3" height="8"></rect>
                    </g>
                    <rect id="Rectangle-path" stroke="#FFFFFF" x="0.5" y="0.5" width="2" height="7"></rect>
                </g>
                <g id="Rectangle-3" transform="translate(44.000000, 5.000000)">
                    <g id="path-12-link" fill="#FFFFFF">
                        <rect id="path-12" x="0" y="0" width="3" height="4"></rect>
                    </g>
                    <rect id="Rectangle-path" stroke="#FFFFFF" x="0.5" y="0.5" width="2" height="3"></rect>
                </g>
                <g id="Rectangle-3" opacity="0.537873641" transform="translate(48.000000, 0.000000)">
                    <g id="path-13-link" fill="#FFFFFF">
                        <rect id="path-13" x="0" y="0" width="3" height="9"></rect>
                    </g>
                    <rect id="Rectangle-path" stroke="#FFFFFF" x="0.5" y="0.5" width="2" height="8"></rect>
                </g>
                <g id="Rectangle-3" transform="translate(52.000000, 1.000000)">
                    <g id="path-14-link" fill="#FFFFFF">
                        <rect id="path-14" x="0" y="0" width="3" height="8"></rect>
                    </g>
                    <rect id="Rectangle-path" stroke="#FFFFFF" x="0.5" y="0.5" width="2" height="7"></rect>
                </g>
                <g id="Rectangle-3" transform="translate(56.000000, 2.000000)">
                    <g id="path-15-link" fill="#FFFFFF">
                        <rect id="path-15" x="0" y="0" width="3" height="7"></rect>
                    </g>
                    <rect id="Rectangle-path" stroke="#FFFFFF" x="0.5" y="0.5" width="2" height="6"></rect>
                </g>
                <g id="Rectangle-3" opacity="0.78272192" transform="translate(60.000000, 4.000000)">
                    <g id="path-16-link" fill="#FFFFFF">
                        <rect id="path-16" x="0" y="0" width="3" height="5"></rect>
                    </g>
                    <rect id="Rectangle-path" stroke="#FFFFFF" x="0.5" y="0.5" width="2" height="4"></rect>
                </g>
                <g id="Rectangle-3" opacity="0.741055254" transform="translate(64.000000, 0.000000)">
                    <g id="path-17-link" fill="#FFFFFF">
                        <rect id="path-17" x="0" y="0" width="3" height="9"></rect>
                    </g>
                    <rect id="Rectangle-path" stroke="#FFFFFF" x="0.5" y="0.5" width="2" height="8"></rect>
                </g>
                <g id="Rectangle-3" transform="translate(68.000000, 4.000000)">
                    <g id="path-18-link" fill="#FFFFFF">
                        <rect id="path-18" x="0" y="0" width="3" height="5"></rect>
                    </g>
                    <rect id="Rectangle-path" stroke="#FFFFFF" x="0.5" y="0.5" width="2" height="4"></rect>
                </g>
            </g>
            <g id="Ticker-/-Symbol" transform="translate(8.000000, 4.000000)" opacity="0.655683877">
                <rect id="Rectangle-4" fill="#FFFFFF" fill-rule="nonzero" x="0" y="0" width="4" height="6"></rect>
                <rect id="Rectangle-4" fill="#FFFFFF" fill-rule="nonzero" x="5" y="0" width="4" height="6"></rect>
                <rect id="Rectangle-4" fill="#FFFFFF" fill-rule="nonzero" x="10" y="0" width="4" height="6"></rect>
                <rect id="Rectangle-4" fill="#FFFFFF" fill-rule="nonzero" x="19" y="0" width="4" height="6"></rect>
                <rect id="Rectangle-4" fill="#FFFFFF" fill-rule="nonzero" x="24" y="0" width="4" height="6"></rect>
                <rect id="Rectangle-4" fill="#FFFFFF" fill-rule="nonzero" x="29" y="0" width="4" height="6"></rect>
                <path d="M15.5,5.5 L17.5,0.5" id="Line" stroke="#FFFFFF" stroke-linecap="square"></path>
            </g>
            <g id="Plus-/-Minus" stroke-linecap="square" transform="translate(66.000000, 5.000000)" stroke="#FFFFFF">
                <path d="M10.5,0.5 L10.5,4.5" id="Line" opacity="0.504472373"></path>
                <path d="M0.5,2.5 L3.5,2.5" id="Line" opacity="0.512171649"></path>
                <path d="M8.5,2.5 L12.5,2.5" id="Line" opacity="0.49365942"></path>
            </g>
        </g>
    </g>
</svg>