<?xml version="1.0" encoding="UTF-8"?>
<svg width="88px" height="58px" viewBox="0 0 88 58" version="1.1" xmlns="http://www.w3.org/2000/svg" xmlns:xlink="http://www.w3.org/1999/xlink">
    <!-- Generator: Sketch 43.2 (39069) - http://www.bohemiancoding.com/sketch -->
    <title>Up-to-date Copy</title>
    <desc>Created with Sketch.</desc>
    <defs>
        <rect id="path-1" x="0" y="0" width="88" height="58" rx="2"></rect>
    </defs>
    <g id="Welcome" stroke="none" stroke-width="1" fill="none" fill-rule="evenodd">
        <g id="Mobile-Portrait" transform="translate(-43.000000, -283.000000)">
            <g id="Up-to-date-Copy" transform="translate(43.000000, 283.000000)">
                <mask id="mask-2" fill="white">
                    <use xlink:href="#path-1"></use>
                </mask>
                <use id="Screen" fill="#FFFFFF" opacity="0.158288043" xlink:href="#path-1"></use>
                <polygon id="kent-brockman" fill="#FFFFFF" opacity="0.170000002" mask="url(#mask-2)" points="0.255067243 63.0470106 0.259948394 62.3256308 0.0321071248 62.0231079 0 58.5683921 0.0142095721 58.1281123 0.247962457 57.0381514 0.449337042 56.3142225 0.738192695 55.4193448 1.13568107 54.5676383 1.14886018 54.1675466 1.36509515 53.6575748 1.55724979 53.2251049 1.75412287 52.7732188 1.98451318 52.3129805 2.20693095 51.8200385 2.49112239 51.2634789 2.68175845 50.7529647 2.93302924 50.3587305 3.16032816 49.8957804 3.32666693 49.4306068 3.58509674 49.0248204 3.7683026 48.7827696 4.03210168 48.3274667 4.24703501 47.9147383 4.43832189 47.6323366 4.68867068 47.4363313 4.87458829 47.2371803 5.14739038 46.9994141 5.27961533 46.7911516 5.45365547 46.580069 5.75411742 46.3293948 5.98065705 46.0433593 6.28084782 45.8622144 6.64584942 45.4318596 7.10359289 45.1945272 7.55911272 44.9552966 8.00101957 44.7663418 8.41662244 44.6314051 8.85283461 44.5726144 9.30873408 44.3553489 9.76815884 44.1205114 10.2330613 43.8722777 10.6305497 43.6666728 11.1055399 43.606472 11.5654528 43.4210425 11.9230784 43.2299183 12.0748822 42.9983348 12.1818336 42.8111698 12.6925105 42.7998889 12.8559206 42.7585076 13.0538783 42.525731 13.1684769 42.3218073 13.6034959 42.2784193 14.0161701 42.1047588 14.2409742 41.8393327 14.3555728 41.7074331 14.6143822 41.4343056 14.9044853 41.0290617 15.1250591 40.8291514 15.3660252 40.5303165 15.4894098 40.2788288 15.5585052 39.9237522 15.7325454 39.8436471 15.789004 39.6454724 15.959302 39.3920322 15.9960733 38.9750734 16.0119641 38.6384367 16.0215637 38.309393 16.0016595 35.0719968 16.0074626 34.5944034 15.8354292 34.3367328 15.2998585 34.2865112 14.7025141 34.3173167 14.417238 34.0719575 14.2170566 33.8826774 13.9983268 33.5469627 13.8127888 33.2017568 13.5893948 32.7320817 13.5738294 32.0666723 13.6034417 31.6602894 13.8210325 31.3862399 13.9657858 31.2133387 14.1824546 30.9019213 14.4311764 30.5706539 14.5386701 30.1116088 14.540243 28.7460797 14.5078104 26.7704069 14.237232 26.3033892 14.2543702 22.9761799 14.0766964 20.7846517 13.9900288 17.8322064 14.04985 17.1922333 14.2396183 16.9439454 14.4822115 16.82593 14.6354254 16.5961363 14.9237387 16.3893924 16.683719 16.3716576 16.912211 16.3137346 17.4020616 15.8762208 17.5593974 15.6766902 17.95233 15.6495185 18.1829373 15.4727123 20.0173822 15.4727123 21.0848899 15.4732547 21.5856417 15.443317 21.7614716 15.2223093 22.2344009 15.2263227 22.4486834 15.0458286 23.7563437 15 23.9651484 15.0350901 24.261597 15.0282564 24.6425437 15.2201941 25.1275131 15.431331 25.5489191 15.4033458 26.6680043 15.4330123 27.3753915 15.4266668 27.9595568 15.4337174 28.1404305 15.6841204 28.6509989 15.8701465 28.878569 16.1454434 29.0843366 16.2890577 29.8107061 16.3003928 30.9410179 16.2874849 31.1167935 16.3477942 31.3699083 16.7573227 31.5735065 16.7795049 31.8384446 17.5201381 31.9794013 17.6820296 32.1915687 18.1463355 32.2238385 23.2092278 32.1739423 23.4149954 32.0725771 23.7499508 32.0211623 24.9900343 31.9756591 25.2557316 31.8144727 25.4607399 31.820547 26.3462349 31.6206368 26.4721143 31.5730727 27.4808312 31.3841721 27.8817364 31.334059 28.3357377 31.1476533 28.945068 31.0904353 29.4222818 30.9907514 29.6804405 30.9727454 29.9119697 31.1871363 30.04913 31.3469669 30.1247879 31.7471128 30.3825126 32.0093391 30.7609103 32.2358787 31.2107897 32.4157762 31.669184 32.415722 32.0564219 32.2333839 32.4983288 32.0494187 32.7652193 31.8201131 33.2383655 31.6316465 33.4631696 31.3596037 33.6565716 31.1906074 33.6872686 30.9206255 33.7516456 30.6506436 33.8504618 30.385326 33.9253603 30.2434472 34.132538 30.0603498 34.3924322 29.883381 34.784009 29.8331051 35.0447709 29.8181905 38.9972556 29.8175397 39.2588852 30.1631794 39.7235166 30.3306571 40.0486554 30.5673929 40.4843795 30.8513674 40.9094192 31.1470024 41.2183418 31.4545149 41.4633756 31.7734168 41.8406343 32.1576718 42.0404903 32.5137246 42.3220243 32.9280801 42.5417303 33.333758 42.8751129 33.7269075 43.1715614 34.2154565 43.4573799 34.5472663 43.6543072 35.0658614 44.0680119 35.2792762 44.237659 35.6879912 44.562364 36.9247121 44.6136703 37.2663384 44.6504416 37.6652369 44.8974821 37.9153145 45.065014 38.1483623 45.2944823 38.4549528 45.5600712 38.7316056 45.8725733 38.9890592 46.2439204 39.2305677 46.4622163 39.3637146 46.6630485 39.859043 47.0797361 39.9148508 47.3120789 40.0135585 47.5721357 40.2249666 47.9934333 40.4234667 48.4607764 40.6617753 49.0024214 41.0226551 49.4819673 41.1687642 50.0233412 41.4395053 50.2638192 41.6143048 50.7158138 41.8907406 51.3308388 41.9977463 51.7005588 42.293761 52.2903645 42.4567914 52.6082901 42.4956237 53.2179459 42.6915747 53.4119445 42.7987431 53.8242932 42.983793 54.212399 43.2386975 54.6837012 43.3442931 55.1015819 43.5645414 55.6057506 43.7570757 56.2956199 44.0177834 56.7710982 44.1387275 57.4517475 44.3272483 58.1469319 44.4693441 58.9617044 44.6638308 59.476015 44.7537524 62.3088721 44.8152007 62.7674834 44.8188345 63.1364984 44.8152007 63.5097979 44.6416487 63.8165511 44.3556675 64.3047204 43.9090964 64.8515178 43.4974527 65.3069292 43.1157467 65.7316977 42.5088028 66.1627034 41.984296 66.5351352 41.4193841 66.8000189 40.7995865 67.0909355 40.4458658 67.2101983 39.9274875 67.4138508 39.1251891 67.5447741 38.2758146 67.7999498 37.6189202 67.9550077 36.8662468 68.1145671 36.1696523 68.2209219 35.1609354 68.3609025 34.4173734 68.4940494 33.578629 68.497195 32.9279716 68.3370933 31.7349642 68.3615533 30.8399781 68.345554 30.3005024 68.3132299 29.8220412 68.1064318 29.2035994 67.8379143 29.0273899 67.5537771 28.7312667 66.9927702 28.5774562 66.4922895 28.6032179 66.0692022 28.5310853 65.9245032 28.263544 65.9243947 27.9827151 65.934157 27.6742264 66.1091192 27.4045157 66.2167214 27.3296714 66.4270448 27.3241394 66.7690507 27.5365237 67.0115355 27.6631082 67.4613064 27.6380517 67.9048403 27.5604414 68.2409889 27.2719111 68.3834642 26.9278985 68.5868997 26.5356709 68.5619516 26.3040874 68.5046252 26.1877533 68.3140434 25.9318725 68.0542577 25.6660125 67.953923 25.4665362 68.1679885 25.4713088 68.5419389 25.4267819 68.8866566 25.1141171 69.0436127 24.7043174 69.2619629 24.3426241 69.1173724 24.0140142 68.7391916 23.5470508 68.3044438 22.972702 67.8107425 22.4914206 67.5402726 22.2192693 67.1559633 21.801714 67.015115 21.3277542 66.8245332 20.0308325 66.8308244 19.1908407 66.8423765 18.2013772 66.7862975 17.7267666 66.8166148 17.1198227 66.812276 16.8391565 66.9985191 16.5055027 67.4059867 16.2469102 67.6087714 15.8846746 67.9333137 15.264443 68.0403193 11.3683085 68.0834362 9.80780463 68.0693351 9.00236052 67.8998507 7.90730147 67.8499545 7.00434283 67.6899069 6.46361979 67.3508839 5.66441272 67.1934397 4.76031513 66.7792469 3.89119913 66.5393655 3.18820495 66.1596662 2.56048897 65.891908 1.96200565 65.1769821 1.26166899 64.7061137 0.938645285 64.2447365 0.512629296 63.8459465 0.382790687 63.4958595"></polygon>
                <text id="Yobit" opacity="0.34" mask="url(#mask-2)" font-family="Roboto-Medium, Roboto" font-size="3" font-weight="400" letter-spacing="0.75" fill="#FFFFFF">
                    <tspan x="47" y="26">Yobit</tspan>
                </text>
                <text id="Binance" opacity="0.382133152" mask="url(#mask-2)" font-family="Roboto-Medium, Roboto" font-size="4" font-weight="400" letter-spacing="1" fill="#FFFFFF">
                    <tspan x="61" y="27">Binance</tspan>
                </text>
                <text id="Kraken" opacity="0.382133152" mask="url(#mask-2)" font-family="Roboto-Medium, Roboto" font-size="4" font-weight="400" letter-spacing="1" fill="#FFFFFF">
                    <tspan x="50" y="9">Kraken</tspan>
                </text>
                <text id="OKEx" opacity="0.34" mask="url(#mask-2)" font-family="Roboto-Medium, Roboto" font-size="3" font-weight="400" letter-spacing="0.75" fill="#FFFFFF">
                    <tspan x="53" y="21">OKEx</tspan>
                </text>
                <text id="luno" opacity="0.34" mask="url(#mask-2)" font-family="Roboto-Medium, Roboto" font-size="3" font-weight="400" letter-spacing="0.75" fill="#FFFFFF">
                    <tspan x="67" y="22">Luno</tspan>
                </text>
                <text id="Coinfloor" opacity="0.3" mask="url(#mask-2)" font-family="Roboto-Medium, Roboto" font-size="2" font-weight="400" letter-spacing="0.75" fill="#FFFFFF">
                    <tspan x="46" y="15">Coinfloor</tspan>
                </text>
                <text id="HitBTC" opacity="0.38" mask="url(#mask-2)" font-family="Roboto-Medium, Roboto" font-size="4" font-weight="400" letter-spacing="1" fill="#FFFFFF">
                    <tspan x="63" y="16">HitBTC</tspan>
                </text>
            </g>
        </g>
    </g>
</svg>